<svg width="143" height="156" viewBox="0 0 143 156" fill="none" xmlns="http://www.w3.org/2000/svg">
<g clip-path="url(#clip0_4_248)">
<path fill-rule="evenodd" clip-rule="evenodd" d="M69.0788 106.39L52.1309 99.2698L1.28711 0.475769H141.713L86.0268 99.2698L69.0788 106.39Z" fill="url(#paint0_linear_4_248)"/>
<path d="M3.434 42.7225H44.3119C46.1238 42.7225 47.8895 43.2944 49.3573 44.3566L67.8914 57.7694C69.4907 58.9269 71.4016 59.5734 73.373 59.6261L140.851 146.605C140.745 150.25 137.758 153.171 134.088 153.171H10.4881C5.73518 153.171 1.88213 149.317 1.88213 144.564V44.2743C1.88213 43.4173 2.57693 42.7225 3.434 42.7225Z" fill="white" stroke="black" stroke-width="1.19005"/>
<path d="M141.082 147.144L107.551 102.451L107.546 102.445L107.542 102.439L73.1236 59.4979L131.965 60.248C136.885 60.3108 141.263 64.2458 141.263 68.9973C141.263 68.9976 141.263 68.998 141.263 68.9983L141.082 147.144Z" fill="white" stroke="black" stroke-width="0.9"/>
<path d="M3.434 42.1274C2.24831 42.1274 1.28711 43.0886 1.28711 44.2743ZM3.434 42.1274H44.3119ZM3.434 42.1274C2.24831 42.1274 1.28711 43.0886 1.28711 44.2743ZM73.6681 59.0358L73.5151 59.0338ZM73.6681 59.0358L132.367 59.798ZM141.449 146.405C141.449 150.471 138.153 153.766 134.088 153.766ZM141.449 146.405V68.9983ZM141.449 146.405C141.449 150.471 138.153 153.766 134.088 153.766ZM44.3119 42.1274C46.2491 42.1274 48.1368 42.7389 49.7061 43.8746ZM44.3119 42.1274C46.2491 42.1274 48.1368 42.7389 49.7061 43.8746ZM49.7061 43.8746L68.2403 57.2874ZM68.2403 57.2874C69.7765 58.3992 71.6189 59.0091 73.5151 59.0338ZM68.2403 57.2874C69.7765 58.3992 71.6189 59.0091 73.5151 59.0338ZM132.367 59.798C137.401 59.8634 141.449 63.9633 141.449 68.9983ZM132.367 59.798C137.401 59.8634 141.449 63.9633 141.449 68.9983ZM134.088 153.766H10.4881ZM10.4881 153.766C5.40651 153.766 1.28711 149.646 1.28711 144.564ZM10.4881 153.766C5.40651 153.766 1.28711 149.646 1.28711 144.564ZM1.28711 144.564V44.2743Z" stroke="black" stroke-width="0.892537"/>
</g>
<defs>
<linearGradient id="paint0_linear_4_248" x1="66.0524" y1="17.3865" x2="66.0525" y2="106.829" gradientUnits="userSpaceOnUse">
<stop stop-color="white" stop-opacity="0"/>
<stop offset="0.64517" stop-opacity="0.43"/>
<stop offset="1" stop-opacity="0"/>
</linearGradient>
<clipPath id="clip0_4_248">
<rect width="142.806" height="154.706" fill="white" transform="translate(0.097168 0.475769)"/>
</clipPath>
</defs>
</svg>
