<svg width="236" height="156" viewBox="0 0 236 156" fill="none" xmlns="http://www.w3.org/2000/svg">
<path d="M8.51611 109.439L32.049 85.9064L48.7497 102.607L86.706 64.6509L101.129 79.0743L142.881 37.3224L170.21 64.6509L227.903 6.95746" stroke="black" stroke-width="1.42168"/>
<path d="M48.7632 102.616V154.088M7.58594 109.277V154.088M100.84 79.0001V154.088M170.479 64.4669V154.088M228.006 7.54541V154.088" stroke="url(#paint0_linear_4_235)" stroke-width="1.42168" stroke-dasharray="2.56 2.56"/>
<path d="M12.2544 104.873H3.19092V113.936H12.2544V104.873Z" fill="white"/>
<path d="M12.6627 109.368C12.6627 106.62 10.4346 104.392 7.68611 104.392C4.93759 104.392 2.70947 106.62 2.70947 109.368C2.70947 112.117 4.93759 114.345 7.68611 114.345C10.4346 114.345 12.6627 112.117 12.6627 109.368Z" fill="#ECEFFD" stroke="black" stroke-width="1.42168"/>
<path d="M35.3716 82.7766H26.3081V91.8401H35.3716V82.7766Z" fill="white"/>
<path d="M35.7802 87.2716C35.7802 84.523 33.5521 82.2949 30.8035 82.2949C28.055 82.2949 25.8269 84.523 25.8269 87.2716C25.8269 90.0201 28.055 92.2482 30.8035 92.2482C33.5521 92.2482 35.7802 90.0201 35.7802 87.2716Z" fill="#ECEFFD" stroke="black" stroke-width="1.42168"/>
<path d="M90.5962 60.9436H81.5327V70.0071H90.5962V60.9436Z" fill="white"/>
<path d="M91.0045 65.4387C91.0045 62.6902 88.7764 60.462 86.0279 60.462C83.2794 60.462 81.0513 62.6902 81.0513 65.4387C81.0513 68.1872 83.2794 70.4153 86.0279 70.4153C88.7764 70.4153 91.0045 68.1872 91.0045 65.4387Z" fill="#ECEFFD" stroke="black" stroke-width="1.42168"/>
<path d="M147.105 33.9734H138.042V43.0369H147.105V33.9734Z" fill="white"/>
<path d="M147.513 38.4684C147.513 35.7199 145.285 33.4918 142.537 33.4918C139.788 33.4918 137.56 35.7199 137.56 38.4684C137.56 41.2169 139.788 43.445 142.537 43.445C145.285 43.445 147.513 41.2169 147.513 38.4684Z" fill="#ECEFFD" stroke="black" stroke-width="1.42168"/>
<path d="M232.467 2.74182H223.404V11.8053H232.467V2.74182Z" fill="white"/>
<path d="M232.875 7.23677C232.875 4.48825 230.647 2.26013 227.898 2.26013C225.15 2.26013 222.922 4.48825 222.922 7.23677C222.922 9.98529 225.15 12.2134 227.898 12.2134C230.647 12.2134 232.875 9.98529 232.875 7.23677Z" fill="#ECEFFD" stroke="black" stroke-width="1.42168"/>
<defs>
<linearGradient id="paint0_linear_4_235" x1="117.796" y1="7.54541" x2="117.796" y2="154.088" gradientUnits="userSpaceOnUse">
<stop/>
<stop offset="1" stop-opacity="0.2"/>
</linearGradient>
</defs>
</svg>
