<svg width="311" height="165" viewBox="0 0 311 165" fill="none" xmlns="http://www.w3.org/2000/svg">
<g clip-path="url(#clip0_4_210)">
<mask id="mask0_4_210" style="mask-type:luminance" maskUnits="userSpaceOnUse" x="6" y="0" width="304" height="141">
<path d="M6.34171 0.108215H309.88V140.84H6.34171V0.108215Z" fill="white"/>
</mask>
<g mask="url(#mask0_4_210)">
<mask id="mask1_4_210" style="mask-type:luminance" maskUnits="userSpaceOnUse" x="7" y="13" width="258" height="3">
<path d="M7.83337 13.5324H264.385V15.024H7.83337V13.5324Z" fill="white"/>
</mask>
<g mask="url(#mask1_4_210)">
<path d="M262.348 14.8214H4.62402" stroke="url(#paint0_linear_4_210)" stroke-width="1.5" stroke-dasharray="1.39 1.39"/>
</g>
<path d="M259.651 68.3995C259.651 66.0441 257.742 64.1348 255.387 64.1348H226.402C224.047 64.1348 222.138 66.0441 222.138 68.3995V136.016C222.138 138.371 224.047 140.28 226.402 140.28H255.387C257.742 140.28 259.651 138.371 259.651 136.016V68.3995Z" stroke="black" stroke-opacity="0.9" stroke-width="1.5"/>
<path d="M302.422 106.146C302.422 105.028 300.513 104.121 298.158 104.121H269.174C266.818 104.121 264.909 105.028 264.909 106.146V138.255C264.909 139.374 266.818 140.28 269.174 140.28H298.158C300.513 140.28 302.422 139.374 302.422 138.255V106.146Z" stroke="black" stroke-opacity="0.9" stroke-width="1.5"/>
<path d="M216.88 58.7414C216.88 56.386 214.971 54.4766 212.616 54.4766H183.631C181.276 54.4766 179.367 56.386 179.367 58.7414V136.016C179.367 138.371 181.276 140.28 183.631 140.28H212.616C214.971 140.28 216.88 138.371 216.88 136.016V58.7414Z" stroke="black" stroke-opacity="0.75" stroke-width="1.5"/>
<path d="M172.729 82.1966C172.729 79.8413 170.82 77.9319 168.463 77.9319H140.859C138.504 77.9319 136.595 79.8413 136.595 82.1966V136.016C136.595 138.371 138.504 140.28 140.859 140.28H168.463C170.82 140.28 172.729 138.371 172.729 136.016V82.1966Z" stroke="black" stroke-opacity="0.6" stroke-width="1.5"/>
<path d="M129.958 72.5388C129.958 70.1833 128.048 68.2739 125.693 68.2739H98.0886C95.7333 68.2739 93.8237 70.1833 93.8237 72.5387V136.016C93.8237 138.371 95.7333 140.28 98.0886 140.28H125.693C128.048 140.28 129.958 138.371 129.958 136.016V72.5388Z" stroke="black" stroke-opacity="0.45" stroke-width="1.5"/>
<path d="M87.1859 87.7157C87.1859 85.3603 85.2766 83.4509 82.9212 83.4509H55.317C52.9616 83.4509 51.0522 85.3603 51.0522 87.7157V136.016C51.0522 138.371 52.9616 140.28 55.317 140.28H82.9212C85.2766 140.28 87.1859 138.371 87.1859 136.016V87.7157Z" stroke="black" stroke-opacity="0.3" stroke-width="1.5"/>
<path d="M45.7943 62.8807C45.7943 60.5252 43.8849 58.6158 41.5295 58.6158H12.5455C10.1902 58.6158 8.28076 60.5252 8.28076 62.8807V136.016C8.28076 138.371 10.1902 140.28 12.5455 140.28H41.5295C43.8849 140.28 45.7943 138.371 45.7943 136.016V62.8807Z" stroke="black" stroke-opacity="0.15" stroke-width="1.5"/>
</g>
<path d="M281.775 158.404V149.463H285.258C285.792 149.463 286.247 149.572 286.625 149.791C287.005 150.011 287.294 150.301 287.493 150.661C287.695 151.017 287.797 151.402 287.797 151.815C287.797 152.3 287.673 152.724 287.426 153.088C287.176 153.453 286.841 153.704 286.419 153.839L286.407 153.535C286.983 153.689 287.428 153.971 287.748 154.379C288.067 154.79 288.226 155.277 288.226 155.846C288.226 156.366 288.119 156.818 287.903 157.198C287.692 157.579 287.385 157.876 286.984 158.086C286.587 158.298 286.114 158.404 285.568 158.404H281.775ZM282.893 157.348H285.358C285.689 157.348 285.985 157.288 286.246 157.167C286.507 157.043 286.711 156.869 286.86 156.647C287.014 156.423 287.09 156.153 287.09 155.838C287.09 155.537 287.021 155.265 286.886 155.025C286.753 154.785 286.563 154.596 286.32 154.454C286.08 154.309 285.801 154.238 285.482 154.238H282.893V157.348ZM282.893 153.194H285.246C285.51 153.194 285.749 153.138 285.959 153.027C286.176 152.91 286.344 152.749 286.469 152.542C286.598 152.334 286.662 152.093 286.662 151.815C286.662 151.431 286.531 151.116 286.27 150.871C286.01 150.628 285.668 150.506 285.246 150.506H282.893V153.194ZM291.347 158.589C290.668 158.589 290.091 158.438 289.615 158.137C289.142 157.829 288.783 157.41 288.534 156.876C288.286 156.342 288.158 155.734 288.149 155.051C288.158 154.351 288.288 153.737 288.541 153.207C288.798 152.673 289.163 152.257 289.639 151.959C290.116 151.66 290.689 151.511 291.359 151.511C292.067 151.511 292.676 151.686 293.184 152.033C293.698 152.381 294.042 152.856 294.215 153.461L293.123 153.79C292.982 153.401 292.752 153.098 292.434 152.883C292.119 152.669 291.757 152.561 291.347 152.561C290.887 152.561 290.509 152.669 290.21 152.883C289.913 153.095 289.691 153.389 289.547 153.765C289.402 154.138 289.327 154.566 289.323 155.051C289.332 155.795 289.503 156.397 289.839 156.857C290.177 157.312 290.68 157.54 291.347 157.54C291.785 157.54 292.149 157.44 292.44 157.242C292.73 157.039 292.949 156.748 293.098 156.366L294.215 156.659C293.984 157.283 293.622 157.761 293.129 158.092C292.636 158.423 292.042 158.589 291.347 158.589Z" fill="#CBCBD0"/>
<path d="M237.161 158.589C236.27 158.589 235.516 158.393 234.895 157.999C234.273 157.606 233.8 157.06 233.472 156.36C233.15 155.661 232.989 154.852 232.989 153.933C232.989 153.015 233.15 152.205 233.472 151.505C233.8 150.806 234.273 150.26 234.895 149.866C235.516 149.474 236.27 149.277 237.161 149.277C238.196 149.277 239.046 149.539 239.713 150.064C240.383 150.591 240.845 151.298 241.097 152.188L239.974 152.487C239.79 151.82 239.467 151.295 238.998 150.908C238.53 150.524 237.918 150.331 237.161 150.331C236.494 150.331 235.939 150.483 235.496 150.785C235.053 151.087 234.72 151.51 234.497 152.051C234.273 152.589 234.16 153.217 234.155 153.933C234.151 154.645 234.261 155.271 234.485 155.814C234.709 156.353 235.043 156.775 235.49 157.081C235.938 157.383 236.494 157.534 237.161 157.534C237.918 157.534 238.53 157.342 238.998 156.957C239.467 156.568 239.79 156.041 239.974 155.379L241.097 155.677C240.845 156.563 240.383 157.272 239.713 157.801C239.046 158.326 238.196 158.589 237.161 158.589ZM244.243 158.596C243.61 158.592 243.069 158.454 242.623 158.186C242.175 157.913 241.828 157.513 241.579 156.988C241.331 156.462 241.192 155.819 241.164 155.057C241.146 154.705 241.151 154.318 241.176 153.896C241.204 153.474 241.251 153.068 241.312 152.679C241.379 152.29 241.461 151.969 241.561 151.717C241.673 151.414 241.829 151.135 242.032 150.879C242.24 150.618 242.471 150.403 242.727 150.233C242.988 150.054 243.281 149.915 243.603 149.817C243.927 149.717 244.264 149.641 244.616 149.587C244.972 149.529 245.327 149.48 245.684 149.438C246.039 149.392 246.379 149.338 246.701 149.277L246.813 150.27C246.586 150.319 246.316 150.363 246.006 150.4C245.696 150.433 245.373 150.473 245.038 150.518C244.707 150.564 244.387 150.628 244.082 150.71C243.779 150.789 243.518 150.9 243.299 151.04C242.976 151.234 242.727 151.526 242.554 151.915C242.384 152.3 242.281 152.733 242.244 153.213C242.501 152.815 242.833 152.524 243.243 152.337C243.654 152.151 244.089 152.058 244.553 152.058C245.154 152.058 245.672 152.199 246.106 152.481C246.54 152.757 246.874 153.14 247.105 153.629C247.341 154.117 247.459 154.673 247.459 155.298C247.459 155.96 247.327 156.541 247.062 157.037C246.796 157.534 246.422 157.919 245.937 158.192C245.458 158.465 244.893 158.599 244.243 158.596ZM244.311 157.546C244.962 157.546 245.454 157.346 245.79 156.943C246.124 156.538 246.292 156.001 246.292 155.33C246.292 154.643 246.118 154.102 245.77 153.71C245.423 153.311 244.935 153.113 244.305 153.113C243.667 153.113 243.179 153.311 242.839 153.71C242.505 154.102 242.337 154.643 242.337 155.33C242.337 156.022 242.507 156.563 242.847 156.957C243.185 157.349 243.674 157.546 244.311 157.546Z" fill="#CBCBD0"/>
<path d="M190.714 158.404V149.463H197.692V158.404H196.587V150.512H191.818V158.404H190.714ZM200.266 158.404V152.703H197.932V151.698H203.706V152.703H201.372V158.404H200.266Z" fill="#CBCBD0"/>
<path d="M153.245 158.404V154.281L153.494 154.672C153.224 154.875 152.881 155.039 152.463 155.162C152.048 155.282 151.589 155.341 151.085 155.341C150.318 155.341 149.705 155.197 149.246 154.907C148.787 154.618 148.454 154.22 148.247 153.716C148.044 153.207 147.942 152.622 147.942 151.965V149.463H149.06V151.598C149.06 151.975 149.091 152.327 149.153 152.654C149.219 152.977 149.333 153.261 149.495 153.504C149.656 153.748 149.88 153.939 150.166 154.075C150.451 154.208 150.813 154.275 151.252 154.275C151.781 154.275 152.235 154.191 152.612 154.026C152.992 153.86 153.267 153.683 153.437 153.492L153.245 154.23V149.463H154.356V158.404H153.245ZM156.926 158.404V152.703H154.591V151.698H160.365V152.703H158.031V158.404H156.926Z" fill="#CBCBD0"/>
<path d="M108.847 158.589C107.957 158.589 107.202 158.393 106.581 157.999C105.96 157.606 105.486 157.06 105.159 156.36C104.836 155.661 104.675 154.852 104.675 153.933C104.675 153.015 104.836 152.205 105.159 151.505C105.486 150.806 105.96 150.26 106.581 149.866C107.202 149.474 107.957 149.277 108.847 149.277C109.882 149.277 110.732 149.539 111.399 150.064C112.069 150.591 112.531 151.298 112.783 152.188L111.66 152.487C111.477 151.82 111.153 151.295 110.685 150.908C110.217 150.524 109.604 150.331 108.847 150.331C108.181 150.331 107.626 150.483 107.183 150.785C106.74 151.087 106.407 151.51 106.184 152.051C105.96 152.589 105.846 153.217 105.842 153.933C105.838 154.645 105.948 155.271 106.171 155.814C106.395 156.353 106.73 156.775 107.177 157.081C107.624 157.383 108.181 157.534 108.847 157.534C109.604 157.534 110.217 157.342 110.685 156.957C111.153 156.568 111.477 156.041 111.66 155.379L112.783 155.677C112.531 156.563 112.069 157.272 111.399 157.801C110.732 158.326 109.882 158.589 108.847 158.589ZM116.283 158.589C115.654 158.589 115.124 158.433 114.694 158.123C114.263 157.809 113.936 157.385 113.713 156.851C113.493 156.312 113.384 155.71 113.384 155.045C113.384 154.369 113.493 153.765 113.713 153.231C113.936 152.697 114.263 152.278 114.694 151.97C115.128 151.665 115.66 151.511 116.289 151.511C116.91 151.511 117.444 151.666 117.891 151.976C118.342 152.284 118.688 152.703 118.928 153.237C119.168 153.771 119.288 154.373 119.288 155.045C119.288 155.714 119.168 156.317 118.928 156.851C118.688 157.385 118.342 157.809 117.891 158.123C117.444 158.433 116.908 158.589 116.283 158.589ZM113.198 161.384V151.697H114.185V156.633H114.309V161.384H113.198ZM116.147 157.577C116.59 157.577 116.956 157.465 117.246 157.242C117.535 157.018 117.753 156.717 117.898 156.335C118.042 155.95 118.115 155.52 118.115 155.045C118.115 154.572 118.042 154.147 117.898 153.765C117.757 153.384 117.537 153.082 117.239 152.858C116.946 152.636 116.571 152.524 116.116 152.524C115.681 152.524 115.321 152.631 115.035 152.846C114.75 153.058 114.537 153.353 114.396 153.734C114.255 154.111 114.185 154.548 114.185 155.045C114.185 155.532 114.253 155.969 114.39 156.354C114.53 156.735 114.746 157.034 115.035 157.255C115.325 157.47 115.695 157.577 116.147 157.577Z" fill="#CBCBD0"/>
<path d="M62.3999 158.404V149.463H65.883C66.417 149.463 66.8723 149.572 67.2489 149.791C67.6297 150.011 67.9195 150.301 68.1182 150.661C68.321 151.017 68.4223 151.402 68.4223 151.815C68.4223 152.3 68.2982 152.724 68.0499 153.088C67.8015 153.453 67.4662 153.704 67.0441 153.839L67.0316 153.535C67.607 153.689 68.054 153.971 68.3726 154.379C68.6914 154.79 68.8508 155.277 68.8508 155.846C68.8508 156.366 68.7431 156.818 68.5279 157.198C68.3169 157.579 68.0105 157.876 67.6091 158.086C67.2117 158.298 66.7398 158.404 66.1934 158.404H62.3999ZM63.5175 157.348H65.9824C66.3135 157.348 66.6094 157.288 66.8702 157.167C67.1309 157.043 67.3358 156.869 67.4848 156.647C67.638 156.423 67.7146 156.153 67.7146 155.838C67.7146 155.537 67.6462 155.265 67.5098 155.025C67.3773 154.785 67.1889 154.596 66.9448 154.454C66.7046 154.309 66.4252 154.238 66.1065 154.238H63.5175V157.348ZM63.5175 153.194H65.8705C66.1356 153.194 66.3735 153.138 66.5845 153.027C66.7998 152.91 66.9695 152.749 67.0938 152.542C67.222 152.334 67.2862 152.093 67.2862 151.815C67.2862 151.431 67.1558 151.116 66.8951 150.871C66.6342 150.628 66.2928 150.506 65.8705 150.506H63.5175V153.194ZM70.9225 158.404V152.703H68.588V151.698H74.3621V152.703H72.0276V158.404H70.9225Z" fill="#CBCBD0"/>
<path d="M19.6284 158.404V149.463H26.6071V158.404H25.502V150.512H20.7337V158.404H19.6284ZM27.3999 158.404V151.698H28.5051V154.523H32.0317V151.698H33.1368V158.404H32.0317V155.571H28.5051V158.404H27.3999Z" fill="#CBCBD0"/>
<path d="M12.5 9.99121H2.80029V19.6909H12.5V9.99121Z" fill="white"/>
<path d="M12.9371 14.8017C12.9371 11.8603 10.5526 9.47577 7.61111 9.47577C4.66967 9.47577 2.28516 11.8603 2.28516 14.8017C2.28516 17.7432 4.66967 20.1277 7.61111 20.1277C10.5526 20.1277 12.9371 17.7432 12.9371 14.8017Z" fill="#ECEFFD" stroke="black" stroke-width="1.5"/>
</g>
<defs>
<linearGradient id="paint0_linear_4_210" x1="4.62402" y1="15.3214" x2="166.986" y2="14.8214" gradientUnits="userSpaceOnUse">
<stop offset="0.33"/>
<stop offset="1" stop-opacity="0"/>
</linearGradient>
<clipPath id="clip0_4_210">
<rect width="310.249" height="164.074" fill="white" transform="translate(0.375488 0.108215)"/>
</clipPath>
</defs>
</svg>
