<svg width="35" height="26" viewBox="0 0 35 26" fill="none" xmlns="http://www.w3.org/2000/svg">
<path d="M1.38867 2.17725L6.89326 5.13778L11.8108 4.28976C12.6295 4.14809 13.4695 4.19055 14.2697 4.41405C15.07 4.63755 15.8104 5.03647 16.4372 5.58186M28.3195 17.7251L20.5368 23.2548C19.7012 23.8484 18.7039 24.1719 17.679 24.1817C16.6541 24.1916 15.6508 23.8874 14.8039 23.31L1.38867 14.1649" stroke="black" stroke-width="2" stroke-linecap="round" stroke-linejoin="round"/>
<path d="M33.6391 14.1075L28.132 17.8709L19.5866 10.9714L16.4429 13.257C15.8276 13.7037 15.063 13.8943 14.31 13.7885C13.557 13.6827 12.8745 13.2889 12.4061 12.69C11.9401 12.0913 11.7241 11.3356 11.8031 10.5811C11.8821 9.82668 12.2502 9.13213 12.8301 8.64307L16.1042 5.89077C16.8803 5.23749 17.7804 4.74783 18.7505 4.4512C19.7206 4.15457 20.7406 4.0571 21.7493 4.16463L26.85 4.71158L33.6391 1.04102" stroke="black" stroke-width="2" stroke-linecap="round" stroke-linejoin="round"/>
<path d="M19.5879 10.9893C21.6452 12.8208 24.5606 11.885 25.6444 10.3896" stroke="black" stroke-width="2" stroke-linecap="round" stroke-linejoin="round"/>
</svg>
