<svg width="36" height="36" viewBox="0 0 36 36" fill="none" xmlns="http://www.w3.org/2000/svg">
<path d="M13.3398 17.6456L16.6842 14.2925L13.6781 11.2761L12.4993 12.4534C12.3627 12.5901 12.1967 12.6647 12.0015 12.6774C11.8063 12.6901 11.6271 12.6154 11.4641 12.4534C11.3021 12.2914 11.2211 12.1171 11.2211 11.9307C11.2211 11.7442 11.3021 11.57 11.4641 11.4079L12.6326 10.2395L9.77439 7.38125L6.42127 10.7344L13.3398 17.6456ZM24.8107 29.1253L28.1638 25.7722L25.3071 22.9139L24.1298 24.0824C23.9873 24.2249 23.8194 24.3011 23.6261 24.3108C23.4329 24.3206 23.2552 24.2445 23.0931 24.0824C22.9311 23.9204 22.8506 23.7476 22.8515 23.5641C22.8525 23.3806 22.9331 23.2078 23.0931 23.0457L24.2616 21.8685L21.2746 18.8902L17.9288 22.2345L24.8107 29.1253ZM7.04357 29.7139C6.70387 29.7139 6.42176 29.6016 6.19724 29.3771C5.97272 29.1526 5.86046 28.8705 5.86046 28.5308V25.5774C5.86046 25.4202 5.8878 25.2733 5.94246 25.1367C5.99713 25 6.08791 24.8682 6.21481 24.7413L12.2944 18.6618L5.34212 11.6817C5.07758 11.4172 4.94531 11.1019 4.94531 10.7358C4.94531 10.3698 5.07758 10.054 5.34212 9.78847L8.82849 6.30357C9.09303 6.03903 9.40833 5.90774 9.77439 5.90969C10.1404 5.91164 10.4557 6.04538 10.7203 6.31089L17.7384 13.2909L24.2792 6.74138C24.4403 6.58031 24.6101 6.46415 24.7887 6.39289C24.9674 6.32163 25.1577 6.286 25.3598 6.286C25.5619 6.286 25.7522 6.32163 25.9309 6.39289C26.1095 6.46415 26.2798 6.58031 26.4419 6.74138L28.8315 9.2262C28.9936 9.38727 29.1058 9.55712 29.1683 9.73576C29.2308 9.9144 29.2615 10.1047 29.2605 10.3068C29.2596 10.5089 29.2283 10.6934 29.1668 10.8603C29.1053 11.0272 28.994 11.1912 28.833 11.3523L22.3464 17.874L29.2723 24.8541C29.5358 25.1186 29.6676 25.4339 29.6676 25.8C29.6676 26.166 29.5358 26.4813 29.2723 26.7459L25.7859 30.2308C25.5214 30.4963 25.2061 30.629 24.84 30.629C24.4739 30.629 24.1586 30.4968 23.8941 30.2322L16.9126 23.28L10.833 29.3596C10.7061 29.4865 10.5744 29.5772 10.4377 29.6319C10.301 29.6866 10.1541 29.7139 9.99695 29.7139H7.04357ZM7.32471 28.2497H9.85346L24.2323 13.8796L21.6933 11.3435L7.32471 25.7209V28.2497ZM22.9804 12.6027L21.6948 11.3435L24.2309 13.881L22.9804 12.6027Z" fill="black"/>
</svg>
