<svg width="37" height="36" viewBox="0 0 37 36" fill="none" xmlns="http://www.w3.org/2000/svg">
<path d="M16.7129 22.7853C17.1776 23.251 17.7743 23.4629 18.5029 23.421C19.2315 23.38 19.7633 23.1181 20.0981 22.6354L27.9734 11.6567L16.9378 19.4765C16.436 19.8104 16.1567 20.3291 16.0997 21.0327C16.0427 21.7363 16.2471 22.3195 16.7129 22.7853ZM18.5749 7.50538C19.9532 7.50538 21.2075 7.67329 22.3379 8.00911C23.4693 8.34394 24.5967 8.85616 25.7201 9.5458L24.3408 10.4798C23.4583 9.99806 22.5448 9.63175 21.6003 9.38089C20.6558 9.13002 19.6473 9.00459 18.5749 9.00459C15.2516 9.00459 12.4216 10.173 10.0849 12.5097C7.74812 14.8465 6.58024 17.676 6.58124 20.9982C6.58124 22.0477 6.72516 23.0846 7.01301 24.1091C7.30086 25.1335 7.70664 26.0955 8.23036 26.9951H28.9194C29.4941 26.0456 29.9129 25.0586 30.1758 24.0341C30.4386 23.0097 30.5695 21.9477 30.5685 20.8483C30.5685 19.9488 30.4526 19.0023 30.2207 18.0088C29.9888 17.0153 29.622 16.0898 29.1203 15.2323L30.0558 13.853C30.7854 15.1044 31.3017 16.2817 31.6045 17.3851C31.9073 18.4886 32.0618 19.637 32.0677 20.8303C32.0737 22.1196 31.9303 23.323 31.6375 24.4404C31.3456 25.5578 30.8909 26.6842 30.2732 27.8196C30.1533 28.0195 29.9709 28.1819 29.726 28.3069C29.4811 28.4318 29.2123 28.4943 28.9194 28.4943H8.23036C7.95551 28.4943 7.70065 28.4273 7.46577 28.2934C7.23189 28.1584 7.035 27.9621 6.87508 27.7042C6.37934 26.8297 5.95657 25.8432 5.60675 24.7448C5.25694 23.6463 5.08203 22.3975 5.08203 20.9982C5.08203 19.1552 5.43185 17.4156 6.13148 15.7795C6.83011 14.1434 7.7841 12.7106 8.99346 11.4813C10.2028 10.2519 11.6331 9.28144 13.2842 8.56982C14.9353 7.85819 16.6989 7.50338 18.5749 7.50538Z" fill="black"/>
</svg>
