<svg width="37" height="36" viewBox="0 0 37 36" fill="none" xmlns="http://www.w3.org/2000/svg">
<path d="M18.5722 30.2495C18.2202 30.2495 17.8808 30.1787 17.554 30.0371C17.2272 29.8965 16.9409 29.6784 16.6951 29.383L5.31995 15.7316C5.13178 15.5121 4.99015 15.2718 4.89505 15.0108C4.79995 14.7498 4.75291 14.4716 4.75392 14.1762C4.75392 13.987 4.7777 13.8019 4.82524 13.6208C4.8738 13.4387 4.94159 13.2561 5.02859 13.073L7.72822 7.62518C7.94775 7.21545 8.25276 6.88818 8.64327 6.64336C9.03377 6.39853 9.4612 6.27612 9.92555 6.27612H27.2189C27.6843 6.27612 28.1117 6.39853 28.5012 6.64336C28.8907 6.88818 29.1957 7.21495 29.4163 7.62366L32.1159 13.0715C32.2039 13.2556 32.2717 13.4387 32.3193 13.6208C32.3668 13.8029 32.3906 13.988 32.3906 14.1762C32.3906 14.4716 32.343 14.7498 32.2479 15.0108C32.1528 15.2718 32.0112 15.5121 31.823 15.7316L20.4494 29.383C20.2036 29.6784 19.9173 29.897 19.5905 30.0386C19.2637 30.1792 18.9243 30.2495 18.5722 30.2495ZM13.7421 13.8636H23.4024L20.3674 7.79362H16.777L13.7421 13.8636ZM17.8135 28.3709V15.3811H7.02713L17.8135 28.3709ZM19.331 28.3709L30.1174 15.3811H19.331V28.3709ZM25.0853 13.8636H30.8002L28.0263 8.31867C27.9484 8.16288 27.8315 8.03642 27.6757 7.9393C27.5199 7.84218 27.3545 7.79362 27.1795 7.79362H22.0504L25.0853 13.8636ZM6.34426 13.8636H12.0592L15.0941 7.79362H9.96349C9.78847 7.79362 9.62306 7.84218 9.46727 7.9393C9.31147 8.03642 9.19513 8.16288 9.11824 8.31867L6.34426 13.8636Z" fill="black"/>
</svg>
