<svg width="24" height="24" viewBox="0 0 24 24" fill="none" xmlns="http://www.w3.org/2000/svg">
<g clip-path="url(#clip0_4_129)">
<path d="M24 17.9096C24 18.0411 23.9959 18.3247 23.9877 18.5466C23.9671 19.0849 23.926 19.7795 23.8603 20.0959C23.7616 20.5726 23.6178 21.0205 23.4247 21.3945C23.1986 21.8384 22.911 22.2329 22.5658 22.574C22.2247 22.9151 21.8301 23.2027 21.3863 23.4288C21.0123 23.6219 20.5603 23.7658 20.0795 23.8644C19.7671 23.926 19.0767 23.9712 18.5425 23.9877C18.3205 23.9959 18.037 24 17.9055 24H6.0863C5.95479 24 5.67123 23.9959 5.44932 23.9877C4.91096 23.9671 4.21644 23.926 3.9 23.8603C3.42329 23.7616 2.97534 23.6178 2.60137 23.4247C2.15753 23.1986 1.76301 22.911 1.42192 22.5658C1.08082 22.2247 0.793151 21.8301 0.567123 21.3863C0.373973 21.0123 0.230137 20.5603 0.131507 20.0795C0.069863 19.7671 0.0246575 19.0767 0.00821918 18.5425C0.00410959 18.3247 0 18.0411 0 17.9096V6.09041C0 5.9589 0.00410959 5.67534 0.0123288 5.45342C0.0328767 4.91507 0.0739726 4.22055 0.139726 3.90411C0.238356 3.4274 0.382192 2.97945 0.575342 2.60548C0.80137 2.16164 1.08904 1.76712 1.43014 1.42603C1.77123 1.08493 2.16575 0.79726 2.60959 0.571233C2.98356 0.378082 3.43562 0.234247 3.91644 0.135616C4.22877 0.0739726 4.91918 0.0287671 5.45342 0.0123288C5.67534 0.00410959 5.9589 0 6.09041 0H17.9096C18.0411 0 18.3247 0.00410959 18.5466 0.0123288C19.0849 0.0328767 19.7795 0.0739726 20.0959 0.139726C20.5726 0.238356 21.0205 0.382192 21.3945 0.575342C21.8384 0.80137 22.2329 1.08904 22.574 1.43425C22.9151 1.77534 23.2027 2.16986 23.4288 2.6137C23.6219 2.98767 23.7658 3.43973 23.8644 3.92055C23.926 4.23288 23.9712 4.92329 23.9877 5.45753C23.9959 5.67945 24 5.96301 24 6.09452V17.9096Z" fill="url(#paint0_linear_4_129)"/>
<path fill-rule="evenodd" clip-rule="evenodd" d="M17.1038 6.8881C15.8821 5.67167 14.2563 5 12.5249 5C8.95624 5 6.05595 7.89095 6.05285 11.4412C6.05285 12.5771 6.35127 13.6852 6.91703 14.6602L6 18L9.43185 17.1055C10.3769 17.6193 11.44 17.8886 12.5249 17.8886H12.528C16.0935 17.8886 18.9969 14.9976 19 11.4474C19 9.72333 18.3254 8.10452 17.1038 6.8881ZM12.528 16.799C11.5612 16.799 10.6131 16.539 9.78934 16.0531L9.5935 15.9386L7.55739 16.471L8.10139 14.4962L7.97394 14.295C7.43615 13.4438 7.15017 12.4564 7.15017 11.4443C7.15017 8.49143 9.56552 6.08952 12.5311 6.08952C13.9672 6.08952 15.3195 6.64667 16.3329 7.65881C17.3494 8.67095 17.9089 10.0174 17.9058 11.4474C17.9027 14.3971 15.4904 16.799 12.528 16.799ZM15.478 12.7907C15.3164 12.7102 14.5206 12.3202 14.3745 12.2676C14.2253 12.215 14.1196 12.1871 14.0108 12.3481C13.902 12.509 13.5942 12.8712 13.4978 12.9795C13.4046 13.0879 13.3082 13.1002 13.1466 13.0198C12.9849 12.9393 12.4627 12.769 11.8472 12.2212C11.3654 11.794 11.0421 11.2679 10.9488 11.1069C10.8556 10.946 10.9395 10.8593 11.0203 10.7788C11.0918 10.7076 11.182 10.59 11.2628 10.4971C11.3436 10.4043 11.3716 10.3362 11.4244 10.2279C11.4773 10.1195 11.4524 10.0267 11.412 9.94619C11.3716 9.86571 11.0483 9.07333 10.9146 8.75143C10.7841 8.43881 10.6504 8.47905 10.5509 8.47595C10.4577 8.46976 10.3489 8.46976 10.2401 8.46976C10.1313 8.46976 9.9572 8.51 9.80799 8.67095C9.65878 8.8319 9.24223 9.2219 9.24223 10.0143C9.24223 10.8067 9.82042 11.5712 9.90124 11.6795C9.98207 11.7879 11.0421 13.4129 12.6648 14.1093C13.0502 14.2764 13.3517 14.3755 13.588 14.4498C13.9766 14.5736 14.3278 14.555 14.6076 14.5148C14.9185 14.4683 15.565 14.1248 15.6987 13.7502C15.8324 13.3757 15.8324 13.0507 15.792 12.9857C15.7453 12.9114 15.6396 12.8712 15.478 12.7907Z" fill="white"/>
</g>
<defs>
<linearGradient id="paint0_linear_4_129" x1="12.0009" y1="24.0018" x2="12.0009" y2="0" gradientUnits="userSpaceOnUse">
<stop stop-color="#25CF43"/>
<stop offset="1" stop-color="#61FD7D"/>
</linearGradient>
<clipPath id="clip0_4_129">
<rect width="24" height="24" rx="12" fill="white"/>
</clipPath>
</defs>
</svg>
